<svg xmlns="http://www.w3.org/2000/svg" viewBox="0 0 558 558"><path d="M279 0C124.9 0 0 124.9 0 279s124.9 279 279 279 279-124.9 279-279S433.1 0 279 0zM136.5 136.5h285c8.2 0 15.9 2.3 22.6 6L279 287 113.9 142.5c6.7-3.7 14.4-6 22.6-6zM89 374V184c0-9.3 2.8-17.9 7.4-25.2l118.7 103.8-120 134.3c-3.8-6.8-6.1-14.6-6.1-22.9zm332.5 47.5h-285c-9.2 0-17.8-2.7-25-7.3l121.5-136 38.2 33.5c2.2 1.9 5 2.9 7.8 2.9s5.6-1 7.8-2.9l38.2-33.5 121.5 136c-7.2 4.6-15.8 7.3-25 7.3zM469 374c0 8.3-2.3 16.1-6.1 22.8l-120-134.2 118.7-103.8c4.6 7.3 7.4 15.9 7.4 25.2v190z" fill="#fff"/></svg>