<svg xmlns="http://www.w3.org/2000/svg" viewBox="0 0 60 60"><path d="M30 0C13.4 0 0 13.4 0 30s13.4 30 30 30 30-13.4 30-30S46.6 0 30 0zm17.2 21.2v1.2c0 11.8-8.9 25.3-25.3 25.3-5 0-9.7-1.5-13.6-4 .7.1 1.4.1 2.1.1 4.2 0 8-1.4 11-3.8-3.9-.1-7.2-2.6-8.3-6.2.5.1 1.1.2 1.7.2.8 0 1.6-.1 2.3-.3C13 32.9 10 29.3 10 25v-.1c1.2.7 2.6 1.1 4 1.1-2.4-1.6-4-4.3-4-7.4 0-1.6.4-3.2 1.2-4.5 4.4 5.4 10.9 8.9 18.3 9.3-.2-.7-.2-1.3-.2-2 0-4.9 4-8.9 8.9-8.9 2.6 0 4.9 1.1 6.5 2.8 2-.4 3.9-1.1 5.6-2.2-.7 2.1-2.1 3.8-3.9 4.9 1.8-.2 3.5-.7 5.1-1.4-1 1.7-2.5 3.3-4.3 4.6zm0 0" fill="#fff"/></svg>