<svg xmlns="http://www.w3.org/2000/svg" viewBox="0 0 60 58.5"><path d="M56 14.9C53.3 10.3 49.7 6.7 45.1 4 40.5 1.3 35.4 0 30 0S19.5 1.3 14.9 4 6.7 10.3 4 14.9C1.3 19.5 0 24.6 0 30c0 6.5 1.9 12.4 5.7 17.6 3.8 5.2 8.7 8.8 14.8 10.8.7.1 1.2 0 1.6-.3.3-.3.5-.7.5-1.2v-2.1-3.5l-.9.2c-.6.1-1.3.1-2.2.1-.9 0-1.8-.1-2.7-.3-.9-.2-1.8-.6-2.6-1.2s-1.4-1.4-1.7-2.4L12 47c-.3-.6-.7-1.3-1.2-2-.6-.7-1.1-1.2-1.7-1.5l-.3-.2c-.2-.1-.4-.3-.5-.5-.1-.1-.3-.3-.3-.5-.1-.2 0-.3.2-.4.2-.1.6-.2 1.1-.2l.8.1c.5.1 1.2.4 1.9.9.8.5 1.4 1.2 1.9 2 .6 1.1 1.3 1.9 2.2 2.4.8.6 1.7.8 2.6.8.9 0 1.6-.1 2.2-.2.6-.1 1.2-.3 1.8-.6.2-1.7.9-3.1 1.9-4-1.5-.2-2.8-.4-4-.7-1.2-.3-2.4-.8-3.7-1.5-1.3-.7-2.3-1.6-3.1-2.6-.8-1-1.5-2.4-2-4.1-.5-1.7-.8-3.6-.8-5.9 0-3.2 1-5.8 3.1-8-1-2.4-.9-5 .3-8 .8-.2 1.9-.1 3.4.5s2.6 1.1 3.3 1.5c.7.4 1.2.8 1.7 1.1 2.4-.7 4.9-1 7.5-1 2.6 0 5.1.3 7.5 1l1.5-.9c1-.6 2.2-1.2 3.6-1.7s2.4-.7 3.2-.4c1.2 2.9 1.3 5.6.3 8 2.1 2.2 3.1 4.9 3.1 8 0 2.2-.3 4.2-.8 5.9-.5 1.7-1.2 3.1-2.1 4.1-.8 1-1.9 1.9-3.2 2.6-1.3.7-2.5 1.2-3.7 1.5-1.2.3-2.5.5-4 .7 1.4 1.2 2 3 2 5.5V57c0 .5.2.9.5 1.2.3.3.8.4 1.5.3 6-2 11-5.6 14.8-10.8C58.1 42.4 60 36.5 60 30c0-5.4-1.3-10.5-4-15.1zm0 0" fill="#fff"/></svg>