<?xml version="1.0" encoding="UTF-8"?><!DOCTYPE svg PUBLIC "-//W3C//DTD SVG 1.1//EN" "http://www.w3.org/Graphics/SVG/1.1/DTD/svg11.dtd"><svg xmlns="http://www.w3.org/2000/svg"><symbol id="icon-email" viewBox="0 0 558 558"><path d="M279 0C124.9 0 0 124.9 0 279s124.9 279 279 279 279-124.9 279-279S433.1 0 279 0zM136.5 136.5h285c8.2 0 15.9 2.3 22.6 6L279 287 113.9 142.5c6.7-3.7 14.4-6 22.6-6zM89 374V184c0-9.3 2.8-17.9 7.4-25.2l118.7 103.8-120 134.3c-3.8-6.8-6.1-14.6-6.1-22.9zm332.5 47.5h-285c-9.2 0-17.8-2.7-25-7.3l121.5-136 38.2 33.5c2.2 1.9 5 2.9 7.8 2.9s5.6-1 7.8-2.9l38.2-33.5 121.5 136c-7.2 4.6-15.8 7.3-25 7.3zM469 374c0 8.3-2.3 16.1-6.1 22.8l-120-134.2 118.7-103.8c4.6 7.3 7.4 15.9 7.4 25.2v190z"/></symbol><symbol id="logo-github" viewBox="0 0 60 58.5"><path d="M56 14.9C53.3 10.3 49.7 6.7 45.1 4 40.5 1.3 35.4 0 30 0S19.5 1.3 14.9 4 6.7 10.3 4 14.9C1.3 19.5 0 24.6 0 30c0 6.5 1.9 12.4 5.7 17.6 3.8 5.2 8.7 8.8 14.8 10.8.7.1 1.2 0 1.6-.3.3-.3.5-.7.5-1.2v-2.1-3.5l-.9.2c-.6.1-1.3.1-2.2.1-.9 0-1.8-.1-2.7-.3-.9-.2-1.8-.6-2.6-1.2s-1.4-1.4-1.7-2.4L12 47c-.3-.6-.7-1.3-1.2-2-.6-.7-1.1-1.2-1.7-1.5l-.3-.2c-.2-.1-.4-.3-.5-.5-.1-.1-.3-.3-.3-.5-.1-.2 0-.3.2-.4.2-.1.6-.2 1.1-.2l.8.1c.5.1 1.2.4 1.9.9.8.5 1.4 1.2 1.9 2 .6 1.1 1.3 1.9 2.2 2.4.8.6 1.7.8 2.6.8.9 0 1.6-.1 2.2-.2.6-.1 1.2-.3 1.8-.6.2-1.7.9-3.1 1.9-4-1.5-.2-2.8-.4-4-.7-1.2-.3-2.4-.8-3.7-1.5-1.3-.7-2.3-1.6-3.1-2.6-.8-1-1.5-2.4-2-4.1-.5-1.7-.8-3.6-.8-5.9 0-3.2 1-5.8 3.1-8-1-2.4-.9-5 .3-8 .8-.2 1.9-.1 3.4.5s2.6 1.1 3.3 1.5c.7.4 1.2.8 1.7 1.1 2.4-.7 4.9-1 7.5-1 2.6 0 5.1.3 7.5 1l1.5-.9c1-.6 2.2-1.2 3.6-1.7s2.4-.7 3.2-.4c1.2 2.9 1.3 5.6.3 8 2.1 2.2 3.1 4.9 3.1 8 0 2.2-.3 4.2-.8 5.9-.5 1.7-1.2 3.1-2.1 4.1-.8 1-1.9 1.9-3.2 2.6-1.3.7-2.5 1.2-3.7 1.5-1.2.3-2.5.5-4 .7 1.4 1.2 2 3 2 5.5V57c0 .5.2.9.5 1.2.3.3.8.4 1.5.3 6-2 11-5.6 14.8-10.8C58.1 42.4 60 36.5 60 30c0-5.4-1.3-10.5-4-15.1zm0 0"/></symbol><symbol id="logo-linkedin" viewBox="0 0 60 60"><path d="M30 0C13.4 0 0 13.4 0 30s13.4 30 30 30 30-13.4 30-30S46.6 0 30 0zm-7.5 44.5H15V18.3h7.5v26.2zM19 16.7c-1.9 0-3.5-1.6-3.5-3.5s1.6-3.5 3.5-3.5 3.5 1.6 3.5 3.5-1.6 3.5-3.5 3.5zm29.7 27.8h-7.5V28.3c0-1.9-.5-3.2-2.9-3.2-3.9 0-4.6 3.2-4.6 3.2v16.2h-7.5V18.3h7.5v2.5c1.1-.8 3.8-2.5 7.5-2.5 2.4 0 7.5 1.4 7.5 10.2v16zm0 0"/></symbol><symbol id="logo-twitter" viewBox="0 0 60 60"><path d="M30 0C13.4 0 0 13.4 0 30s13.4 30 30 30 30-13.4 30-30S46.6 0 30 0zm17.2 21.2v1.2c0 11.8-8.9 25.3-25.3 25.3-5 0-9.7-1.5-13.6-4 .7.1 1.4.1 2.1.1 4.2 0 8-1.4 11-3.8-3.9-.1-7.2-2.6-8.3-6.2.5.1 1.1.2 1.7.2.8 0 1.6-.1 2.3-.3C13 32.9 10 29.3 10 25v-.1c1.2.7 2.6 1.1 4 1.1-2.4-1.6-4-4.3-4-7.4 0-1.6.4-3.2 1.2-4.5 4.4 5.4 10.9 8.9 18.3 9.3-.2-.7-.2-1.3-.2-2 0-4.9 4-8.9 8.9-8.9 2.6 0 4.9 1.1 6.5 2.8 2-.4 3.9-1.1 5.6-2.2-.7 2.1-2.1 3.8-3.9 4.9 1.8-.2 3.5-.7 5.1-1.4-1 1.7-2.5 3.3-4.3 4.6zm0 0"/></symbol></svg>