<?xml version="1.0" encoding="utf-8"?>
<!-- Generator: Adobe Illustrator 18.0.0, SVG Export Plug-In . SVG Version: 6.00 Build 0)  -->
<!DOCTYPE svg PUBLIC "-//W3C//DTD SVG 1.1//EN" "http://www.w3.org/Graphics/SVG/1.1/DTD/svg11.dtd">
<svg version="1.1" id="Layer_1" xmlns="http://www.w3.org/2000/svg" xmlns:xlink="http://www.w3.org/1999/xlink" x="0px" y="0px"
	 viewBox="0 0 558 558" style="enable-background:new 0 0 558 558;" xml:space="preserve">
<path style="fill:#FFFFFF;" d="M279,0C124.9,0,0,124.9,0,279s124.9,279,279,279s279-124.9,279-279S433.1,0,279,0z M136.5,136.5h285
	c8.2,0,15.9,2.3,22.6,6L279,287L113.9,142.5C120.6,138.8,128.3,136.5,136.5,136.5z M89,374V184c0-9.3,2.8-17.9,7.4-25.2l118.7,103.8
	l-120,134.3C91.3,390.1,89,382.3,89,374z M421.5,421.5h-285c-9.2,0-17.8-2.7-25-7.3l121.5-136l38.2,33.5c2.2,1.9,5,2.9,7.8,2.9
	c2.8,0,5.6-1,7.8-2.9l38.2-33.5l121.5,136C439.3,418.8,430.7,421.5,421.5,421.5z M469,374c0,8.3-2.3,16.1-6.1,22.8l-120-134.2
	l118.7-103.8c4.6,7.3,7.4,15.9,7.4,25.2V374z"/>
</svg>
