<?xml version="1.0" encoding="utf-8"?>
<!-- Generator: Adobe Illustrator 18.0.0, SVG Export Plug-In . SVG Version: 6.00 Build 0)  -->
<!DOCTYPE svg PUBLIC "-//W3C//DTD SVG 1.1//EN" "http://www.w3.org/Graphics/SVG/1.1/DTD/svg11.dtd">
<svg version="1.1" id="Layer_1" xmlns="http://www.w3.org/2000/svg" xmlns:xlink="http://www.w3.org/1999/xlink" x="0px" y="0px"
	 viewBox="0 0 60 60" style="enable-background:new 0 0 60 60;" xml:space="preserve">
<g>
	<path style="fill:#FFFFFF;" d="M30,0C13.4,0,0,13.4,0,30c0,16.6,13.4,30,30,30c16.6,0,30-13.4,30-30C60,13.4,46.6,0,30,0L30,0z
		 M22.5,44.5H15V18.3h7.5V44.5z M19,16.7c-1.9,0-3.5-1.6-3.5-3.5c0-1.9,1.6-3.5,3.5-3.5c1.9,0,3.5,1.6,3.5,3.5
		C22.5,15.1,20.9,16.7,19,16.7L19,16.7z M48.7,44.5h-7.5V28.3c0-1.9-0.5-3.2-2.9-3.2c-3.9,0-4.6,3.2-4.6,3.2v16.2h-7.5V18.3h7.5v2.5
		c1.1-0.8,3.8-2.5,7.5-2.5c2.4,0,7.5,1.4,7.5,10.2V44.5z M48.7,44.5"/>
</g>
</svg>
