<?xml version="1.0" encoding="utf-8"?>
<!-- Generator: Adobe Illustrator 18.0.0, SVG Export Plug-In . SVG Version: 6.00 Build 0)  -->
<!DOCTYPE svg PUBLIC "-//W3C//DTD SVG 1.1//EN" "http://www.w3.org/Graphics/SVG/1.1/DTD/svg11.dtd">
<svg version="1.1" id="Layer_1" xmlns="http://www.w3.org/2000/svg" xmlns:xlink="http://www.w3.org/1999/xlink" x="0px" y="0px"
	 viewBox="0 0 60 58.5" style="enable-background:new 0 0 60 58.5;" xml:space="preserve">
<g>
	<path style="fill:#FFFFFF;" d="M56,14.9C53.3,10.3,49.7,6.7,45.1,4C40.5,1.3,35.4,0,30,0c-5.4,0-10.5,1.3-15.1,4
		C10.3,6.7,6.7,10.3,4,14.9C1.3,19.5,0,24.6,0,30c0,6.5,1.9,12.4,5.7,17.6c3.8,5.2,8.7,8.8,14.8,10.8c0.7,0.1,1.2,0,1.6-0.3
		c0.3-0.3,0.5-0.7,0.5-1.2c0-0.1,0-0.8,0-2.1c0-1.3,0-2.5,0-3.5l-0.9,0.2c-0.6,0.1-1.3,0.1-2.2,0.1c-0.9,0-1.8-0.1-2.7-0.3
		c-0.9-0.2-1.8-0.6-2.6-1.2c-0.8-0.6-1.4-1.4-1.7-2.4L12,47c-0.3-0.6-0.7-1.3-1.2-2c-0.6-0.7-1.1-1.2-1.7-1.5l-0.3-0.2
		c-0.2-0.1-0.4-0.3-0.5-0.5C8.2,42.7,8,42.5,8,42.3c-0.1-0.2,0-0.3,0.2-0.4c0.2-0.1,0.6-0.2,1.1-0.2l0.8,0.1
		c0.5,0.1,1.2,0.4,1.9,0.9c0.8,0.5,1.4,1.2,1.9,2c0.6,1.1,1.3,1.9,2.2,2.4c0.8,0.6,1.7,0.8,2.6,0.8c0.9,0,1.6-0.1,2.2-0.2
		c0.6-0.1,1.2-0.3,1.8-0.6c0.2-1.7,0.9-3.1,1.9-4c-1.5-0.2-2.8-0.4-4-0.7c-1.2-0.3-2.4-0.8-3.7-1.5c-1.3-0.7-2.3-1.6-3.1-2.6
		c-0.8-1-1.5-2.4-2-4.1c-0.5-1.7-0.8-3.6-0.8-5.9c0-3.2,1-5.8,3.1-8c-1-2.4-0.9-5,0.3-8c0.8-0.2,1.9-0.1,3.4,0.5
		c1.5,0.6,2.6,1.1,3.3,1.5c0.7,0.4,1.2,0.8,1.7,1.1c2.4-0.7,4.9-1,7.5-1c2.6,0,5.1,0.3,7.5,1l1.5-0.9c1-0.6,2.2-1.2,3.6-1.7
		c1.4-0.5,2.4-0.7,3.2-0.4c1.2,2.9,1.3,5.6,0.3,8c2.1,2.2,3.1,4.9,3.1,8c0,2.2-0.3,4.2-0.8,5.9c-0.5,1.7-1.2,3.1-2.1,4.1
		c-0.8,1-1.9,1.9-3.2,2.6c-1.3,0.7-2.5,1.2-3.7,1.5c-1.2,0.3-2.5,0.5-4,0.7c1.4,1.2,2,3,2,5.5V57c0,0.5,0.2,0.9,0.5,1.2
		c0.3,0.3,0.8,0.4,1.5,0.3c6-2,11-5.6,14.8-10.8C58.1,42.4,60,36.5,60,30C60,24.6,58.7,19.5,56,14.9L56,14.9z M56,14.9"/>
</g>
</svg>
