<?xml version="1.0" encoding="utf-8"?>
<!-- Generator: Adobe Illustrator 18.0.0, SVG Export Plug-In . SVG Version: 6.00 Build 0)  -->
<!DOCTYPE svg PUBLIC "-//W3C//DTD SVG 1.1//EN" "http://www.w3.org/Graphics/SVG/1.1/DTD/svg11.dtd">
<svg version="1.1" id="Layer_1" xmlns="http://www.w3.org/2000/svg" xmlns:xlink="http://www.w3.org/1999/xlink" x="0px" y="0px"
	 viewBox="0 0 60 60" style="enable-background:new 0 0 60 60;" xml:space="preserve">
<g>
	<path style="fill:#FFFFFF;" d="M30,0C13.4,0,0,13.4,0,30c0,16.6,13.4,30,30,30c16.6,0,30-13.4,30-30C60,13.4,46.6,0,30,0L30,0z
		 M47.2,21.2c0,0.4,0,0.8,0,1.2c0,11.8-8.9,25.3-25.3,25.3c-5,0-9.7-1.5-13.6-4c0.7,0.1,1.4,0.1,2.1,0.1c4.2,0,8-1.4,11-3.8
		c-3.9-0.1-7.2-2.6-8.3-6.2c0.5,0.1,1.1,0.2,1.7,0.2c0.8,0,1.6-0.1,2.3-0.3c-4.1-0.8-7.1-4.4-7.1-8.7c0,0,0-0.1,0-0.1
		c1.2,0.7,2.6,1.1,4,1.1c-2.4-1.6-4-4.3-4-7.4c0-1.6,0.4-3.2,1.2-4.5c4.4,5.4,10.9,8.9,18.3,9.3c-0.2-0.7-0.2-1.3-0.2-2
		c0-4.9,4-8.9,8.9-8.9c2.6,0,4.9,1.1,6.5,2.8c2-0.4,3.9-1.1,5.6-2.2c-0.7,2.1-2.1,3.8-3.9,4.9c1.8-0.2,3.5-0.7,5.1-1.4
		C50.5,18.3,49,19.9,47.2,21.2L47.2,21.2z M47.2,21.2"/>
</g>
</svg>
